# xmcd
#
# Track frame offsets:
#	150
#	23790
#	42214
#	65607
#	83287
#	109001
#	140386
#	155670
#	177172
#	199732
#	214027
#	243775
#	260297
#	272298
#	289261
#
# Disc length: 4263 seconds
#
# Revision: 0
# Processed by: cddbd v1.4PL0 Copyright (c) Steve Scherf et al.
# Submitted via: audiograbber 1.80.04
#
DISCID=c610a50f
DTITLE=orig. Stiefelbein Bluhs Bänd - Hexenbaungad
DYEAR=1999
DGENRE=Blues
TTITLE0=Sandleit'na Hawara
TTITLE1=Da Zauwara von da Dechantlackn
TTITLE2=Hexnbaungad
TTITLE3=Schoafrichta
TTITLE4=Waun de de Liab vabrennt
TTITLE5=Da Repp
TTITLE6=Gulasch
TTITLE7=I muaß an Dopp'lgänga hom
TTITLE8=Gumpoldskirchn liegt mittn in Texas
TTITLE9=Waun i am Jingsdn Tog wos z'redn hätt
TTITLE10=De Wöd de zwickt mi unter d'Oxln
TTITLE11=I steh nebm mia und zwinka ma zua
TTITLE12=Solaung oesd stirbst (bist no ned dod)
TTITLE13=Liebhartsthaler Tryptichon
TTITLE14=Am Alberner Haf'n
EXTD=Andi Fasching v\nGeorg Siegl g\nBilly Wotawa acc
EXTT0=
EXTT1=
EXTT2=
EXTT3=
EXTT4=
EXTT5=
EXTT6=
EXTT7=
EXTT8=
EXTT9=
EXTT10=
EXTT11=
EXTT12=
EXTT13=
EXTT14=
PLAYORDER=
